<?xml version="1.0" standalone="yes"?>
<svg xmlns="http://www.w3.org/2000/svg" width="512" height="512">
<path style="fill:#7a695a; stroke:none;" d="M0 0L0 512L512 512L512 436C512 430.767 514.742 413.624 510.397 410.179C504.598 405.583 486.378 406.507 479 405.914C453.707 403.881 428.16 400.92 403 397.576C393.865 396.362 375.435 398.591 369.742 389.956C365.002 382.765 368.869 370.031 369.003 362C369.398 338.395 370.665 315.497 373.718 292C374.68 284.6 373.187 272.095 378.433 266.228C384.086 259.907 400.24 263 408 263C408 258.832 406.904 252.54 411.148 250.028C416.251 247.007 424.496 249.72 430 249.961C445.725 250.649 464.699 247.154 479.942 251.318C484.236 252.491 483.419 256.535 485.938 259.258C488.142 261.643 492.987 261.617 496 262L496 263L494 267L512 269L512 0L0 0z"/>
<path style="fill:#94b064; stroke:none;" d="M291 74L291 75L297 75L291 74z"/>
<path style="fill:#eff2f3; stroke:none;" d="M32 91L30.9853 274L27 406L351 392L345.961 284L341.004 178L338 118L335.972 93.6034L326 92.8302L303 94L303 74L103 86.0895L32 91z"/>
<path style="fill:#94b064; stroke:none;" d="M274 75L274 76L281 76L274 75M40 76L41.0278 89.382L51 90.0108L79 87.9962L197 81C184.43 75.7255 163.656 80.5587 150 79.9606C113.359 78.356 76.6399 77.5734 40 76M258 76L258 77L264 77L258 76M241 77L241 78L248 78L241 77M224 78L224 79L231 79L224 78M207 79L207 80L214 80L207 79M394 79L394 174L395 174L395 108L394 79z"/>
<path style="fill:#eff2f3; stroke:none;" d="M395 79L395 174L480 174L480 79L395 79z"/>
<path style="fill:#94b064; stroke:none;" d="M480 79L480 172L481 172L481 108L480 79M402 88L402 91L427 90L427 88L402 88M303 89L303 94L304 94L303 89z"/>
<path style="fill:#6bacbd; stroke:none;" d="M407 89L407 90L410 90L407 89z"/>
<path style="fill:#94b064; stroke:none;" d="M31 91L31 111L32 111L31 91M321 92L321 93L329 93L321 92M336 92L337 93L336 92M307 93L307 94L312 94L307 93M337 101L337 109L338 109L337 101z"/>
<path style="fill:#db752f; stroke:none;" d="M463 104L455 111L463 114L466 105L463 104z"/>
<path style="fill:#94b064; stroke:none;" d="M464 106L465 107L464 106M463.333 109.667L463.667 110.333L463.333 109.667M453 111L451 115L452 115L453 111z"/>
<path style="fill:#7a695a; stroke:none;" d="M454 111L455 112L454 111M453 112L454 113L453 112z"/>
<path style="fill:#94b064; stroke:none;" d="M460 112L461 113L460 112M449 114L443 120L449 114z"/>
<path style="fill:#7a695a; stroke:none;" d="M450 114L451 115L450 114z"/>
<path style="fill:#6bacbd; stroke:none;" d="M449 115L450 116L449 115z"/>
<path style="fill:#94b064; stroke:none;" d="M430 120L430 121L443 121L430 120z"/>
<path style="fill:#7a695a; stroke:none;" d="M78 120L78 138C81.5654 138 86.6651 138.881 89.848 136.972C93.6045 134.72 92.4547 131.22 89 130C95.342 120.883 84.8914 120.001 78 120z"/>
<path style="fill:#94b064; stroke:none;" d="M88 120L89 121L88 120M94.3333 120.667L94.6667 121.333L94.3333 120.667z"/>
<path style="fill:#7a695a; stroke:none;" d="M95 120C92.8908 128.859 95.0142 142.387 107 136L107 139L108 139L110 120L105 121C106.404 126.967 105.99 132.888 99 134C99 129.009 100.67 121.882 95 120z"/>
<path style="fill:#94b064; stroke:none;" d="M98 120L99 121L98 120M105 120L106 121L105 120M112 120L113 121L112 120z"/>
<path style="fill:#7a695a; stroke:none;" d="M112 121L114 139C118.112 137.984 122.727 137.648 125.397 133.891C132.429 123.994 120.011 118.633 112 121z"/>
<path style="fill:#94b064; stroke:none;" d="M122 120L123 121L122 120M136 120L137 121L136 120z"/>
<path style="fill:#7a695a; stroke:none;" d="M145 129L135 129L135 130L139 131C134.579 135.371 131.042 130.177 135.294 126.487C137.868 124.253 141.861 125.229 145 125C140.081 116.575 128.061 121.681 128.333 130.999C128.688 143.137 142.709 136.709 145 129z"/>
<path style="fill:#94b064; stroke:none;" d="M147 120L148 121L147 120z"/>
<path style="fill:#7a695a; stroke:none;" d="M145 138L159 137L159 136L150 135L157 131L157 128L150 127L158 120C144.753 120.001 147.676 127.136 145 138z"/>
<path style="fill:#94b064; stroke:none;" d="M160.333 120.667L160.667 121.333L160.333 120.667z"/>
<path style="fill:#7a695a; stroke:none;" d="M161 120L161 124L165 124C165 129.054 163.264 136.983 169 139L169 124L175 124C173.118 118.33 165.991 120 161 120z"/>
<path style="fill:#94b064; stroke:none;" d="M209 120L210 121L209 120z"/>
<path style="fill:#7a695a; stroke:none;" d="M205 139L211 135L211 138L215 138L211 120C206.7 122.892 199.649 135.087 205 139z"/>
<path style="fill:#94b064; stroke:none;" d="M211 120L212 121L211 120M217.333 120.667L217.667 121.333L217.333 120.667z"/>
<path style="fill:#7a695a; stroke:none;" d="M218 120L217 139C221.7 137.44 220.997 133.346 221 129L222 129L226 139L225 134C238.318 146.775 235.002 121.992 229 120L230 132C226.474 127.412 224.137 120.998 218 120z"/>
<path style="fill:#94b064; stroke:none;" d="M232 120L233 121L232 120M242 120L243 121L242 120z"/>
<path style="fill:#7a695a; stroke:none;" d="M247 135L248 138L249 138L249 128L241 131L244 132L244 133C235.388 130.352 244.392 124.369 249 123C241.658 111.718 226.727 136.324 241.976 136.512C243.776 136.535 245.39 135.668 247 135M252 120C251.304 125.508 248.917 134.13 254 138L255 129L256 129L258 137L265 129L266 129L269 138L269 120L261 130L255 120L252 120z"/>
<path style="fill:#94b064; stroke:none;" d="M273 120L274 121L273 120z"/>
<path style="fill:#7a695a; stroke:none;" d="M271 137L284 138L284 134L275 134L283 130L283 128L276 127L276 124L284 124L284 120C269.785 120.002 273.705 125.639 271 137z"/>
<path style="fill:#94b064; stroke:none;" d="M287 120L286 122L287 120z"/>
<path style="fill:#7a695a; stroke:none;" d="M286 123C289.956 127.19 289 132.546 289 138L293 138L293 124L297 124L297 120L286 123z"/>
<path style="fill:#94b064; stroke:none;" d="M298 120L299 121L298 120z"/>
<path style="fill:#7a695a; stroke:none;" d="M298 124L303 124L303 138L307 138L307 124L312 124C310.091 118.248 299.909 118.248 298 124z"/>
<path style="fill:#94b064; stroke:none;" d="M311 120L312 121L311 120M338 120L338 127L339 127L338 120z"/>
<path style="fill:#eff2f3; stroke:none;" d="M440.667 120.333L441.333 120.667L440.667 120.333z"/>
<path style="fill:#94b064; stroke:none;" d="M187 121L188 122L187 121z"/>
<path style="fill:#7a695a; stroke:none;" d="M188 121L186 139L188 139L189 130L190 130L193 137L195 137L197 131L198 131L198 139L199 139L202 121C197.202 122.5 196.024 126.731 194 131L188 121z"/>
<path style="fill:#94b064; stroke:none;" d="M189 121L190 122L189 121M255 121L256 122L255 121M265 121L266 122L265 121M417 121L417 122L429 122L417 121M105 122L105 130L106 130L105 122M112.333 122.667L112.667 123.333L112.333 122.667M125 122L126 123L125 122M251.333 122.667L251.667 123.333L251.333 122.667M297.333 122.667L297.667 123.333L297.333 122.667M418 124L418 125L440 123L418 124z"/>
<path style="fill:#6bacbd; stroke:none;" d="M457 122L457 134C447.396 133.168 451 153.407 451 160L459 160L460 122L457 122M462 122L462 160L470 160L470 122L462 122z"/>
<path style="fill:#94b064; stroke:none;" d="M91 123L92 124L91 123M144 123L145 124L144 123M157 123L158 124L157 123M190 123L191 124L190 123M207 123L208 124L207 123M246.667 123.333L247.333 123.667L246.667 123.333M264 123L265 124L264 123M269 123L269 130L270 130L269 123M286 123L287 124L286 123M82 124L82 127L83 127L82 124z"/>
<path style="fill:#eff2f3; stroke:none;" d="M83 127L87 124L83 127M117 124L117 134C123.379 131.706 124.764 124.894 117 124z"/>
<path style="fill:#94b064; stroke:none;" d="M121 124L122 125L121 124M137 124L138 125L137 124M139 124L140 125L139 124M169 124L169 129L170 129L169 124M212 124L213 125L212 124M302 124L302 137L303 137L302 124M310 124L311 125L310 124M142.667 125.333L143.333 125.667L142.667 125.333M191 125L192 126L191 125M206 125L207 126L206 125M263 125L264 126L263 125M409 125L409 126L415 126L409 125M146 126L146 131L147 131L146 126M150 126L151 127L150 126M202 126L202 131L203 131L202 126M235 126L236 127L235 126M288 126L288 133L289 133L288 126M133 127L134 128L133 127M217 127L217 132L218 132L217 127M248 127L249 128L248 127M281 127L282 128L281 127M128 128L129 129L128 128M144 128L145 129L144 128M209 128L208 130L209 128M213 128L214 129L213 128M245 128L246 129L245 128M249 128L249 132L250 132L249 128M89 129L90 130L89 129M185 129L185 135L186 135L185 129z"/>
<path style="fill:#eff2f3; stroke:none;" d="M209 129L208 131L210 131L209 129z"/>
<path style="fill:#94b064; stroke:none;" d="M221 129L222 130L221 129M229 129L230 130L229 129M234.333 129.667L234.667 130.333L234.333 129.667M242 129L243 130L242 129M265 129L266 130L265 129M122 130L123 131L122 130M189 130L190 131L189 130M193.667 130.333L194.333 130.667L193.667 130.333M256 130L257 131L256 130M282 130L283 131L282 130z"/>
<path style="fill:#eff2f3; stroke:none;" d="M82 131L82 134L88 134L82 131z"/>
<path style="fill:#94b064; stroke:none;" d="M109 131L109 134L110 134L109 131M222 131L223 132L222 131M239 131L240 132L239 131M241 131L240 133L241 131M244 131L245 132L244 131M121 132L122 133L121 132M138 132L139 133L138 132M150 132L151 133L150 132M190 132L191 133L190 132M203 132L204 133L203 132M214 132L215 133L214 132M233 132L234 133L233 132z"/>
<path style="fill:#eff2f3; stroke:none;" d="M241 132L241 133L244 133L241 132z"/>
<path style="fill:#94b064; stroke:none;" d="M99 133L100 134L99 133M116 133L117 134L116 133M119 133L120 134L119 133M143 133L144 134L143 133M235 133L236 134L235 133M257 133L258 134L257 133M275 133L276 134L275 133M125 134L126 135L125 134M150 134L151 135L150 134M225.333 134.667L225.667 135.333L225.333 134.667M236 134L237 135L236 134M254.333 134.667L254.667 135.333L254.333 134.667M269 134L269 138L270 138L269 134M284 134L284 138L285 138L284 134z"/>
<path style="fill:#6bacbd; stroke:none;" d="M441 135L441 160L448 160L447 134L441 135z"/>
<path style="fill:#94b064; stroke:none;" d="M95 135L96 136L95 135M124 135L125 136L124 135M129 135L130 136L129 135M158 135L159 136L158 135M192 135L193 136L192 135M195 135L196 136L195 135M234 135L235 136L234 135M237 135L238 136L237 135M245.667 135.333L246.333 135.667L245.667 135.333M251.333 135.667L251.667 136.333L251.333 135.667M266 135L266 138L267 138L266 135M271 135L272 136L271 135M91 136L92 137L91 136M96 136L97 137L96 136M123 136L124 137L123 136M130 136L131 137L130 136M200 136L201 137L200 136M215.333 136.667L215.667 137.333L215.333 136.667M239 136L240 137L239 136M260 136L261 137L260 136M90 137L91 138L90 137M121 137L122 138L121 137M158 137L159 138L158 137M165 137L166 138L165 137M188 137L189 138L188 137M228 137L229 138L228 137M247 137L248 138L247 137M258.667 137.333L259.333 137.667L258.667 137.333M271 137L272 138L271 137M339 137L339 144L340 144L339 137M79 138L79 139L83 139L79 138M100 138L100 139L103 139L100 138M108 138L109 139L108 138M113 138L114 139L113 138M115.667 138.333L116.333 138.667L115.667 138.333M185 138L186 139L185 138M199 138L200 139L199 138M202 138L203 139L202 138M229 138L230 139L229 138M267.667 138.333L268.333 138.667L267.667 138.333M303.667 138.333L304.333 138.667L303.667 138.333M232 139L233 140L232 139M437 145L438 146L437 145z"/>
<path style="fill:#6bacbd; stroke:none;" d="M430 150C430.005 156.92 430.477 159.911 438 160L438 150L430 150M420 151L420 159L426 160L427 151L420 151z"/>
<path style="fill:#94b064; stroke:none;" d="M415 153L415 159L416 159L415 153M408 154L409 155L408 154z"/>
<path style="fill:#6bacbd; stroke:none;" d="M404 155L404 159L412 158C410.009 154.572 407.763 154.824 404 155z"/>
<path style="fill:#7a695a; stroke:none;" d="M411 155L412 156L411 155z"/>
<path style="fill:#94b064; stroke:none;" d="M340 157L340 164L341 164L340 157M420 159L420 160L425 160L420 159M426 159L427 160L426 159M430 159L431 160L430 159z"/>
<path style="fill:#7a695a; stroke:none;" d="M63 163L64.6034 171.972L81 173L124 173L323 174L323 164L63 163z"/>
<path style="fill:#94b064; stroke:none;" d="M280 163L280 164L322 164C311.012 159.389 291.957 163 280 163M63 172L64 173L63 172M143 173L143 174L191 174C178.586 168.791 156.526 173 143 173M300 174L300 175L323 175L300 174M341 176L341 185L342 185L341 176M31 189L31 236L32 236C32 222.735 36.1095 201.177 31 189M63 195L65 264L160 264L158 197L118 196L63 195M342 199L342 208L343 208L342 199z"/>
<path style="fill:#db752f; stroke:none;" d="M167 212L167 244L214 243L229.651 241.397L230 212L167 212z"/>
<path style="fill:#94b064; stroke:none;" d="M276 213L277 214L276 213z"/>
<path style="fill:#7a695a; stroke:none;" d="M277 213L275 218L283 218L277 213z"/>
<path style="fill:#94b064; stroke:none;" d="M279 213L280 214L279 213M280 214L281 215L280 214M281 215L282 216L281 215z"/>
<path style="fill:#eff2f3; stroke:none;" d="M127 219L135 219L136 228L137 228L138 219L142 219C138.171 213.094 115.792 214.408 117.372 223.942C118.546 231.027 133.133 227.898 127 219z"/>
<path style="fill:#7a695a; stroke:none;" d="M264 216L264 220L259 223L264 223L263 233L259 233L259 237L262 237L262 241L266 242L266 237L271 233L266 233L267 223L272 223L272 220L268 220L269 217L264 216z"/>
<path style="fill:#6bacbd; stroke:none;" d="M268 216L269 217L268 216M275 216L276 217L275 216z"/>
<path style="fill:#eff2f3; stroke:none;" d="M88 225C81.7319 225.023 81.8352 220.976 88 221C77.4931 203.93 78.1436 241.694 88 225M92.2284 217.743C85.0338 221.061 92.396 230.223 98.7716 227.396C105.943 224.216 99.013 214.614 92.2284 217.743M102 228L116 228C113.566 214.346 106.061 216.823 102 228z"/>
<path style="fill:#6bacbd; stroke:none;" d="M278 217L279 218L278 217z"/>
<path style="fill:#94b064; stroke:none;" d="M283.333 217.667L283.667 218.333L283.333 217.667z"/>
<path style="fill:#6bacbd; stroke:none;" d="M303 217L304 218L303 217z"/>
<path style="fill:#7a695a; stroke:none;" d="M304 217C298.527 221.788 291.468 228.725 290 236C294.864 233.623 305.121 222.583 304 217z"/>
<path style="fill:#94b064; stroke:none;" d="M305.333 217.667L305.667 218.333L305.333 217.667z"/>
<path style="fill:#eff2f3; stroke:none;" d="M174.434 219.043C169.381 222.321 174.539 231.045 179.682 227.214C184.494 223.629 179.587 215.701 174.434 219.043M186.434 219.029C181.067 222.683 185.961 230.384 191.768 226.82C197.528 223.285 191.844 215.344 186.434 219.029M199.279 218.742C192.163 222.183 201.5 228.684 206.851 226.143C214.063 222.717 204.467 216.234 199.279 218.742M211 218L211 220C216.332 220.412 217.717 222.856 218 228L220 228L223 218L211 218z"/>
<path style="fill:#94b064; stroke:none;" d="M263 218L264 219L263 218M274 218L274 219L277 219L274 218M279 218L280 219L279 218z"/>
<path style="fill:#6bacbd; stroke:none;" d="M281.667 218.333L282.333 218.667L281.667 218.333z"/>
<path style="fill:#94b064; stroke:none;" d="M121 220L121 221L125 221L121 220M270 219L271 220L270 219z"/>
<path style="fill:#6bacbd; stroke:none;" d="M271 219L272 220L271 219z"/>
<path style="fill:#94b064; stroke:none;" d="M272 219L273 225L274 225L272 219M278 219L279 220L278 219z"/>
<path style="fill:#7a695a; stroke:none;" d="M289.322 220.029C285.079 222.77 290.019 227.945 293.678 225.292C297.924 222.214 293.259 217.484 289.322 220.029z"/>
<path style="fill:#94b064; stroke:none;" d="M94 225L98 221C94.4531 220.453 93.4531 221.453 94 225z"/>
<path style="fill:#db752f; stroke:none;" d="M188 220L188 226L190 220L188 220M199 224L206 223L201 223L201 222L206 222C202.803 219.62 200.279 220.149 199 224z"/>
<path style="fill:#94b064; stroke:none;" d="M208 220L209 221L208 220M259 220L260 221L259 220z"/>
<path style="fill:#eff2f3; stroke:none;" d="M272 220L272 224L267 223L267 233L280 233L280 232L274 227L277 226L273 225L272 220z"/>
<path style="fill:#7a695a; stroke:none;" d="M274 220L274 224L280 223L274 229L281 233L274 233C276.494 240.514 284.776 235.921 286 230C280.259 223.476 286.006 220.001 274 220z"/>
<path style="fill:#94b064; stroke:none;" d="M284 220L285 221L284 220M300 220L301 221L300 220M109 221L110 224L109 221z"/>
<path style="fill:#db752f; stroke:none;" d="M175 221L176 226L178 226L179 221L175 221z"/>
<path style="fill:#94b064; stroke:none;" d="M290 221L290 222L293 222L290 221M299 221L300 222L299 221M191 222L192 223L191 222M217 222L218 223L217 222z"/>
<path style="fill:#eff2f3; stroke:none;" d="M290 224L293 222L290 224z"/>
<path style="fill:#94b064; stroke:none;" d="M343 222L343 230L344 230L343 222M121 223L124 225L121 223M259.667 223.333L260.333 223.667L259.667 223.333z"/>
<path style="fill:#6bacbd; stroke:none;" d="M263 223L264 224L263 223z"/>
<path style="fill:#94b064; stroke:none;" d="M268 223L268 224L272 224L268 223z"/>
<path style="fill:#6bacbd; stroke:none;" d="M279 223L280 224L279 223z"/>
<path style="fill:#94b064; stroke:none;" d="M292 223L293 224L292 223M194 224L195 225L194 224M275 224L275 225L280 226L280 225L275 224z"/>
<path style="fill:#eff2f3; stroke:none;" d="M278.667 224.333L279.333 224.667L278.667 224.333z"/>
<path style="fill:#94b064; stroke:none;" d="M284 224L285 225L284 224M290.667 224.333L291.333 224.667L290.667 224.333M295 224L291 230L292 230L297 226L297 225L295 224M300 224L301 225L300 224M197 225L198 226L197 225M288 225L289 226L288 225z"/>
<path style="fill:#eff2f3; stroke:none;" d="M295 225L296 226L295 225z"/>
<path style="fill:#6bacbd; stroke:none;" d="M299 225L300 226L299 225z"/>
<path style="fill:#94b064; stroke:none;" d="M198 226L199 227L198 226M207 226L208 227L207 226z"/>
<path style="fill:#6bacbd; stroke:none;" d="M283 226L284 227L283 226z"/>
<path style="fill:#94b064; stroke:none;" d="M289.667 226.333L290.333 226.667L289.667 226.333z"/>
<path style="fill:#eff2f3; stroke:none;" d="M294 226L292 230L294 226z"/>
<path style="fill:#94b064; stroke:none;" d="M173 227L174 228L173 227M274 227L275 228L274 227M283.333 227.667L283.667 228.333L283.333 227.667z"/>
<path style="fill:#6bacbd; stroke:none;" d="M297 228L298 229L297 228M301 228L302 229L301 228z"/>
<path style="fill:#7a695a; stroke:none;" d="M302 228.89C297.547 230.113 297.896 237.089 302.871 235.338C306.412 234.091 306.42 227.677 302 228.89z"/>
<path style="fill:#94b064; stroke:none;" d="M274 229L275 230L274 229M299 229L300 230L299 229M306.333 229.667L306.667 230.333L306.333 229.667M276 230L281 233L280 230L276 230M298 230L299 231L298 230M302.667 230.333L303.333 230.667L302.667 230.333M270 233L274 235L275 232L270 233M286 231L287 232L286 231M295 231L296 232L295 231z"/>
<path style="fill:#eff2f3; stroke:none;" d="M302.333 231.667L302.667 232.333L302.333 231.667z"/>
<path style="fill:#6bacbd; stroke:none;" d="M306 231L307 232L306 231z"/>
<path style="fill:#94b064; stroke:none;" d="M230 232L230 240L231 240L230 232M259 232L260 233L259 232z"/>
<path style="fill:#6bacbd; stroke:none;" d="M266 232L267 233L266 232z"/>
<path style="fill:#94b064; stroke:none;" d="M290 232L291 233L290 232M301.333 232.667L301.667 233.333L301.333 232.667M306 232L307 233L306 232z"/>
<path style="fill:#6bacbd; stroke:none;" d="M285 233L286 234L285 233M302 233L303 234L302 233z"/>
<path style="fill:#94b064; stroke:none;" d="M289.333 234.667L289.667 235.333L289.333 234.667M305 234L306 235L305 234M258 235L259 236L258 235M292 235L293 236L292 235M298 235L299 236L298 235M304 235L305 236L304 235z"/>
<path style="fill:#6bacbd; stroke:none;" d="M269 236L270 237L269 236z"/>
<path style="fill:#94b064; stroke:none;" d="M270 236L271 237L270 236M274 236L275 237L274 236M282 236L283 237L282 236M278 237L278 238L281 238L278 237M261.333 238.667L261.667 239.333L261.333 238.667M266 240L267 241L266 240M230 241L231 242L230 241M262.667 241.333L263.333 241.667L262.667 241.333z"/>
<path style="fill:#6bacbd; stroke:none;" d="M264 241L265 242L264 241z"/>
<path style="fill:#94b064; stroke:none;" d="M194 243L194 244L198 244L194 243M168 244L168 245L171 245L168 244M344 246L344 257L345 257L344 246z"/>
<path style="fill:#db752f; stroke:none;" d="M410 249L410 250L426 250L410 249z"/>
<path style="fill:#94b064; stroke:none;" d="M408 253L461 255L483 253C479.67 249.189 470.768 251.053 466 250.996C451.701 250.826 437.368 250 423 250C418.096 250 410.959 248.436 408 253z"/>
<path style="fill:#db752f; stroke:none;" d="M459 250L459 251L465 251L459 250M408 253L408 263C401.413 263 382.359 261.322 377.738 266.404C373.094 271.511 374.568 284.461 373.718 291C370.507 315.709 370.055 339.217 368.961 364C368.616 371.796 364.503 386.591 371.228 392.566C378.757 399.255 399.304 397.093 409 398.285C443.132 402.479 478.187 403.723 512 410L512 269L494 267L496 263L496 262C488.869 260.656 485.087 259.842 484 252L466.996 254.981L408 253z"/>
<path style="fill:#94b064; stroke:none;" d="M30 262L30 280L31 280L30 262z"/>
<path style="fill:#7a695a; stroke:none;" d="M409 262L410 263L409 262z"/>
<path style="fill:#94b064; stroke:none;" d="M380 264L380 265L397 264L380 264z"/>
<path style="fill:#db752f; stroke:none;" d="M498 263L499 267L505 263L498 263z"/>
<path style="fill:#94b064; stroke:none;" d="M345 270L345 280L346 280L345 270M74 285L75 286L74 285z"/>
<path style="fill:#6bacbd; stroke:none;" d="M75 285L74 287L75 285z"/>
<path style="fill:#7a695a; stroke:none;" d="M75.3333 286.667L75.6667 287.333L75.3333 286.667z"/>
<path style="fill:#94b064; stroke:none;" d="M76.3333 286.667L76.6667 287.333L76.3333 286.667M84.6667 286.333L85.3333 286.667L84.6667 286.333M67 287L67 291L68 291L67 287z"/>
<path style="fill:#6bacbd; stroke:none;" d="M68 287L68 291L78 291L77 288L71 291L68 287z"/>
<path style="fill:#94b064; stroke:none;" d="M69 287L70 288L69 287M74 287L75 288L74 287z"/>
<path style="fill:#6bacbd; stroke:none;" d="M84 287L84 291L86 291L86 287L84 287z"/>
<path style="fill:#7a695a; stroke:none;" d="M68 288L69 289L68 288z"/>
<path style="fill:#94b064; stroke:none;" d="M71 288L72 289L71 288M78 288L77 290L78 288z"/>
<path style="fill:#7a695a; stroke:none;" d="M79 288L78 291L79 291L79 288z"/>
<path style="fill:#6bacbd; stroke:none;" d="M80 288L79 291L80 291L80 288z"/>
<path style="fill:#94b064; stroke:none;" d="M81 288L76 291L76 292L84 290L81 291L81 288M88 288L88 289L91 289L88 288z"/>
<path style="fill:#eff2f3; stroke:none;" d="M69.3333 289.667L69.6667 290.333L69.3333 289.667z"/>
<path style="fill:#7a695a; stroke:none;" d="M71 289L71 291L73 289L71 289M81 289L81 291L83 291L83 289L81 289z"/>
<path style="fill:#94b064; stroke:none;" d="M86.3333 289.667L86.6667 290.333L86.3333 289.667z"/>
<path style="fill:#6bacbd; stroke:none;" d="M87.3333 289.667L87.6667 290.333L87.3333 289.667z"/>
<path style="fill:#7a695a; stroke:none;" d="M88 289L88 292L89 292L90 289L88 289z"/>
<path style="fill:#6bacbd; stroke:none;" d="M90 289L90 290L94 292L94 289L90 289z"/>
<path style="fill:#94b064; stroke:none;" d="M92 289L93 290L92 289z"/>
<path style="fill:#7a695a; stroke:none;" d="M94 289L93 291L94 289z"/>
<path style="fill:#94b064; stroke:none;" d="M94 292L95 292L96 290L97 292L98 290L99 290C99.6916 293.228 101.101 293.02 104 292L104 291L101 290L101 291L103 291C99.2036 290.589 96.5351 288.13 94 292z"/>
<path style="fill:#6bacbd; stroke:none;" d="M99.6667 289.333L100.333 289.667L99.6667 289.333z"/>
<path style="fill:#7a695a; stroke:none;" d="M101 289L102 290L101 289z"/>
<path style="fill:#6bacbd; stroke:none;" d="M102 289L103 290L102 289z"/>
<path style="fill:#94b064; stroke:none;" d="M89 290L92 292L89 290z"/>
<path style="fill:#7a695a; stroke:none;" d="M91 290L92 291L91 290z"/>
<path style="fill:#6bacbd; stroke:none;" d="M95 290L97 292L95 290z"/>
<path style="fill:#7a695a; stroke:none;" d="M98.3333 290.667L98.6667 291.333L98.3333 290.667M100.333 290.667L100.667 291.333L100.333 290.667M68 291L69 292L68 291z"/>
<path style="fill:#94b064; stroke:none;" d="M72.6667 291.333L73.3333 291.667L72.6667 291.333z"/>
<path style="fill:#7a695a; stroke:none;" d="M74 291L75 292L74 291M84 291L85 292L84 291z"/>
<path style="fill:#94b064; stroke:none;" d="M85 291L86 292L85 291z"/>
<path style="fill:#6bacbd; stroke:none;" d="M89 291L90 292L89 291z"/>
<path style="fill:#7a695a; stroke:none;" d="M92 291L93 292L92 291M95 291L96 292L95 291z"/>
<path style="fill:#6bacbd; stroke:none;" d="M101 291L102 292L101 291z"/>
<path style="fill:#7a695a; stroke:none;" d="M102 291L103 292L102 291z"/>
<path style="fill:#94b064; stroke:none;" d="M346 298L346 307L347 307L346 298M29 303L29 317L30 317L29 303M429 314C429 320.91 430.225 328.149 426 334C430.127 338.372 429 344.321 429 350L435 348L436 348C438.15 351.732 450.897 353.145 452 348L453 348L454 350L457 315L429 314M347 320L347 328L348 328L347 320M89 338L93 339L94 336L89 338M28 336L28 348L29 348L28 336M68 336L68 337L71 337L68 336z"/>
<path style="fill:#7a695a; stroke:none;" d="M92.6667 336.333L93.3333 336.667L92.6667 336.333M67 337L67 339L69 337L67 337z"/>
<path style="fill:#6bacbd; stroke:none;" d="M69 337L70 338L69 337z"/>
<path style="fill:#7a695a; stroke:none;" d="M70 337L72 339L72 337L70 337z"/>
<path style="fill:#6bacbd; stroke:none;" d="M92 337L92 340L95 340L92 337z"/>
<path style="fill:#94b064; stroke:none;" d="M94.3333 337.667L94.6667 338.333L94.3333 337.667z"/>
<path style="fill:#6bacbd; stroke:none;" d="M103 337L103 341L104 341L103 337z"/>
<path style="fill:#94b064; stroke:none;" d="M104 337L105 338L104 337z"/>
<path style="fill:#7a695a; stroke:none;" d="M458.333 337.667L458.667 338.333L458.333 337.667z"/>
<path style="fill:#94b064; stroke:none;" d="M66 338L66 341L67 341L66 338M68 338L67 344C71.147 343.524 73.1595 342.363 73 338L72 338L72 342L71 342L71 338L68 338z"/>
<path style="fill:#eff2f3; stroke:none;" d="M69 338L70 339L69 338z"/>
<path style="fill:#94b064; stroke:none;" d="M75.6667 338.333L76.3333 338.667L75.6667 338.333M79 338L78 340L80 340L79 338M81 338L81 343L78 341L83 343L81 338M84 338L84 339L84 342L87 342L84 343L84 344L90 344L89 341L93 343C92.2352 339.431 90.0588 339.89 87 341L84 338z"/>
<path style="fill:#6bacbd; stroke:none;" d="M87 340L90 339L87 340z"/>
<path style="fill:#7a695a; stroke:none;" d="M103.333 338.667L103.667 339.333L103.333 338.667z"/>
<path style="fill:#94b064; stroke:none;" d="M120 341L117 339L116 343L115 339L114 339L114 343L112 343L112 339L107 339L107 343L106 343L106 339L102 344L110 344L109 340L112 344L130 344L131 338L120 341z"/>
<path style="fill:#6bacbd; stroke:none;" d="M128 338L129 339L128 338M67 339L67 343L68 343L67 339M70 339L72 342L72 339L70 339z"/>
<path style="fill:#7a695a; stroke:none;" d="M73 340L73 341L78 340L73 340z"/>
<path style="fill:#6bacbd; stroke:none;" d="M77 343L78 343L81 343L82 339L77 343M82 340L87 343L87 342L84 342L86 339L82 340z"/>
<path style="fill:#7a695a; stroke:none;" d="M84 339L85 340L84 339M88 339L88 340L92 340L88 339M93 339L93 342L94 342L93 339z"/>
<path style="fill:#94b064; stroke:none;" d="M95 339L96 342L95 339z"/>
<path style="fill:#6bacbd; stroke:none;" d="M96 339L98 341L96 339z"/>
<path style="fill:#7a695a; stroke:none;" d="M97.6667 339.333L98.3333 339.667L97.6667 339.333z"/>
<path style="fill:#94b064; stroke:none;" d="M99 339L96 344L101 344L101 343L99 341L103 339L100 341L99 339z"/>
<path style="fill:#6bacbd; stroke:none;" d="M112 339L112 343L114 343L114 339L112 339M127 339L128 340L127 339z"/>
<path style="fill:#7a695a; stroke:none;" d="M131 339L132 340L131 339z"/>
<path style="fill:#6bacbd; stroke:none;" d="M74 340L73 343L74 343L74 340z"/>
<path style="fill:#94b064; stroke:none;" d="M75 340C74.1456 342.697 74.1492 343.386 77 344L77 340L75 340z"/>
<path style="fill:#7a695a; stroke:none;" d="M87 340L88 341L87 340M96.3333 340.667L96.6667 341.333L96.3333 340.667z"/>
<path style="fill:#6bacbd; stroke:none;" d="M100 340L101 341L100 340M106 340L106 343L107 343L108 340L106 340M109 340L109 343L111 343L111 340L109 340z"/>
<path style="fill:#7a695a; stroke:none;" d="M116 340L117 341L116 340z"/>
<path style="fill:#6bacbd; stroke:none;" d="M117 340L118 341L117 340z"/>
<path style="fill:#7a695a; stroke:none;" d="M120 340L121 341L120 340z"/>
<path style="fill:#6bacbd; stroke:none;" d="M122 340L123 341L122 340z"/>
<path style="fill:#7a695a; stroke:none;" d="M123 340L124 341L123 340z"/>
<path style="fill:#6bacbd; stroke:none;" d="M124 340L125 341L124 340z"/>
<path style="fill:#7a695a; stroke:none;" d="M126 340L127 341L126 340z"/>
<path style="fill:#eff2f3; stroke:none;" d="M128 340L129 341L128 340z"/>
<path style="fill:#94b064; stroke:none;" d="M473 340L473 341L476 341L473 340M478 340L478 341L487 341L478 340M488 340L488 341L494 341L488 340M495 340L496 341L495 340z"/>
<path style="fill:#eff2f3; stroke:none;" d="M69 341L70 342L69 341M76 341L77 342L76 341M85 341L86 342L85 341z"/>
<path style="fill:#6bacbd; stroke:none;" d="M99 341L99 343L101 343L99 341M115 341L117 343L117 341L115 341M126 341L127 342L126 341z"/>
<path style="fill:#94b064; stroke:none;" d="M511 341L512 342L511 341z"/>
<path style="fill:#6bacbd; stroke:none;" d="M70 342L71 343L70 342z"/>
<path style="fill:#7a695a; stroke:none;" d="M83 342L84 343L83 342z"/>
<path style="fill:#6bacbd; stroke:none;" d="M93 342L94 343L93 342M96 342L97 343L96 342M103.667 342.333L104.333 342.667L103.667 342.333M119 342L120 343L119 342M122 342L122 343L126 343L122 342z"/>
<path style="fill:#7a695a; stroke:none;" d="M128.667 342.333L129.333 342.667L128.667 342.333z"/>
<path style="fill:#94b064; stroke:none;" d="M348 342L348 349L349 349L348 342M473 343L474 344L473 343z"/>
<path style="fill:#db752f; stroke:none;" d="M452 346L453 347L452 346M439 348L440 349L439 348z"/>
<path style="fill:#94b064; stroke:none;" d="M92 356L92 357L155 357L135 356L92 356z"/>
<path style="fill:#6bacbd; stroke:none;" d="M63 371L329 371L327.258 357.028L314 356L279 356L120 357L80 357L64.6034 358.028L63 371z"/>
<path style="fill:#94b064; stroke:none;" d="M328 356L329 371L330 371L328 356M62 357L62 371L63 371L62 357z"/>
<path style="fill:#7a695a; stroke:none;" d="M63 357L64 358L63 357M328 357L329 358L328 357z"/>
<path style="fill:#94b064; stroke:none;" d="M349 360L349 368L350 368L349 360M27 366L27 379L28 379L27 366M210 370L211 371L210 370M212 370L212 371L215 371L212 370M350 380L350 389L351 389L350 380M342 392L342 393L348 393L342 392M320 393L320 394L328 394L320 393M295 394L295 395L304 395L295 394M274 395L274 396L281 396L274 395M249 396L249 397L259 397L249 396M223 397L223 398L234 398L223 397M26 398L26 406L27 406L26 398M194 398L194 399L205 399L194 398M169 399L169 400L178 400L169 399M145 400L145 401L154 401L145 400M125 401L125 402L132 402L125 401M104 402L104 403L111 403L104 402M83 403L83 404L91 404L83 403M61 404L61 405L69 405L61 404M41 405L41 406L49 406L41 405M27 406L27 407L30 407L27 406z"/>
<path style="fill:#eff2f3; stroke:none;" d="M169 428C171.155 438.681 179.948 439 189 439L246 439C252.301 439 266.019 441.634 270 436L169 428z"/>
<path style="fill:#94b064; stroke:none;" d="M170 428L170 429L181 429L170 428M186 429L186 430L195 430L186 429M202 430L202 431L208 431L202 430M169 431L158 436L167 442L177 438L169 431M215 431L215 432L222 432L215 431M229 432L229 433L237 433L229 432M243 433L243 434L252 434L243 433M257 434L257 435L264 435L257 434M267 435L267 436L270 438C270.951 435.493 269.348 435.294 267 435M268 438L269 439L268 438z"/>
<path style="fill:#db752f; stroke:none;" d="M176 439L177 449L267 448L267 439L176 439z"/>
<path style="fill:#94b064; stroke:none;" d="M182 439L182 440L219 440C209.202 435.889 192.649 439 182 439z"/>
<path style="fill:#eff2f3; stroke:none;" d="M157 444L157 445L177 449L176 441L157 444z"/>
<path style="fill:#94b064; stroke:none;" d="M163.667 442.333L164.333 442.667L163.667 442.333M176 442L176 445L177 445L176 442M159.667 443.333L160.333 443.667L159.667 443.333M158 445L159 446L158 445M160 446L161 447L160 446M162.667 447.333L163.333 447.667L162.667 447.333M165 448L165 449L168 449L165 448z"/>
</svg>
